<?xml version="1.0" encoding="UTF-8" standalone="no"?>
<!-- Created with Inkscape (http://www.inkscape.org/) -->

<svg
   version="1.1"
   id="svg2"
   width="15.998467"
   height="15.995244"
   viewBox="0 0 15.998467 15.995243"
   xmlns="http://www.w3.org/2000/svg"
   xmlns:svg="http://www.w3.org/2000/svg">
  <defs
     id="defs6" />
  <g
     id="g8"
     transform="matrix(0.98246228,0,0,0.9870339,-0.35517141,-0.40732298)">
    <path
       style="fill:#e53950;fill-opacity:1;fill-rule:evenodd;stroke:none;stroke-width:0.203155;stroke-dasharray:none;stroke-opacity:1"
       d="M 6.0832083,7.6055975 C 6.1034603,7.5148129 6.119511,7.2576954 6.1188767,7.0342254 6.1179421,6.7044523 6.0927297,6.57415 5.98504,6.3424838 5.7981769,5.9404963 5.5286295,5.6641396 5.1360799,5.4720774 4.8134569,5.3142281 4.5086293,5.2558435 4.1825236,5.2532246 3.8791785,5.2507885 3.5542768,5.319751 3.2923656,5.4425304 2.9239736,5.6152261 2.567319,5.9443222 2.3952175,6.2703568 2.2711019,6.5054858 2.2600941,6.5749555 2.2600941,7.1231198 L 2.3846675,7.6852688 1.3802591,7.7198862 0.50042406,7.719872 0.52138724,5.7772068 C 0.54460574,3.6255399 0.55691565,3.5266101 0.89155318,2.8023311 1.2680499,1.9874532 1.9359921,1.313685 2.7640337,0.91351803 3.5004935,0.55760974 3.5998664,0.54475247 5.7944749,0.52142718 l 1.9599333,-0.020831 0.035305,1.38518692 c 0.019418,0.761853 0.042322,1.3922047 0.050899,1.4007818 0.00858,0.00858 0.1731054,-0.055824 0.3656192,-0.1431142 C 8.705499,2.9170719 9.060058,2.8937527 9.4087676,3.0643604 9.55759,3.1371725 9.7311652,3.2668245 9.79449,3.3524758 10.210259,3.9148334 10.117355,4.8688657 9.6144133,5.2016972 9.2453608,5.4459247 8.7619165,5.4652043 8.0805713,5.2628664 L 7.6973429,5.1407831 7.7285252,6.5008983 7.7388544,7.7714902 6.9339179,7.7706606 H 6.0463866 Z"
       id="path16237"
       transform="translate(0.46434899,0.51551123)" />
    <path
       style="fill:#ffc344;fill-opacity:1;fill-rule:evenodd;stroke:#ffc344;stroke-width:0.00515838;stroke-dasharray:none;stroke-opacity:1"
       d="m 8.4591404,15.115625 c -0.00934,-0.120362 -0.031596,-0.542411 -0.049463,-0.937887 -0.05225,-1.156516 -0.065019,-1.297412 -0.1175782,-1.297412 -0.025231,0 -0.1814227,0.03848 -0.3470935,0.08552 C 7.6778686,13.041686 7.5652176,13.12665 7.1493339,13.12705 6.6981194,13.127491 6.6991321,13.048916 6.5269325,12.964386 6.3252608,12.865356 6.0428013,12.57387 5.9354507,12.354009 5.8541167,12.187432 5.8235385,11.760533 5.8737357,11.492431 c 0.096275,-0.514201 0.3876869,-0.834163 0.9295101,-1.020578 0.2577386,-0.08868 0.4649726,-0.07611 1.012486,0.06141 l 0.4845754,0.12171 0.025316,-0.09471 c 0.013924,-0.05209 0.020958,-0.5713522 0.015632,-1.1539102 l -0.00969,-1.0591963 0.8050204,2.11e-5 0.8050204,2.1e-5 2.501e-4,0.2891821 c 3.376e-4,0.4146946 0.047405,0.6623537 0.1760119,0.9261671 0.197651,0.4054454 0.682641,0.8275882 1.11521,0.9706992 0.605948,0.20047 1.338465,0.141752 1.830761,-0.146753 0.348894,-0.204465 0.66955,-0.6521257 0.768845,-1.0733683 0.02986,-0.1266649 0.04731,-0.3575865 0.0476,-0.6298506 l 4.48e-4,-0.4298653 h 0.727486 0.727485 l -0.01079,0.961335 c -0.0059,0.5287343 -0.02098,1.4818632 -0.03342,2.1180632 l -0.02263,1.156728 -0.227755,0.461246 c -0.267859,0.542464 -0.501595,0.881754 -0.847405,1.230089 -0.346055,0.348582 -0.675563,0.576981 -1.231081,0.853327 l -0.473089,0.235341 -1.156728,0.02243 c -0.6362,0.01234 -1.5392203,0.02694 -2.0067104,0.03246 l -0.8499824,0.01003 z"
       id="path9959"
       transform="matrix(1.0178508,0,0,1.0131364,0.3615115,0.41267375)" />
    <path
       style="fill:#2abcc8;fill-rule:evenodd;stroke:none;stroke-width:0.0174104;stroke-dasharray:none;stroke-opacity:1"
       d="M 4.1411868,15.279031 C 3.9155528,15.258887 3.4920151,15.165073 3.2525662,15.0822 2.0346767,14.660689 1.038988,13.673519 0.7413562,12.419862 0.63867499,11.987358 0.69641579,11.729994 0.69641579,9.9877505 L 0.6424574,8.2354975 1.9340477,8.1634457 C 2.6226756,8.1250304 3.1158479,8.2933481 3.1241218,8.2850654 3.1323959,8.2767827 3.1779146,8.1416891 3.108803,7.960955 2.9474967,7.5391227 2.8292713,7.3730983 2.8274596,7.0966935 2.8249896,6.7193514 2.978141,6.3994395 3.23211,6.1710996 3.7296837,5.723738 4.7754016,5.7106131 5.2549568,6.1641561 5.5800506,6.4716161 5.6910832,7.0126885 5.555834,7.565251 5.516157,7.7273519 5.297334,8.0451601 5.1847648,8.3383351 c -0.015782,0.041103 0.054032,0.043526 1.2544202,0.043526 L 7.806992,8.3060461 7.710318,9.0880691 7.7290333,9.8703406 7.570639,9.8303383 C 7.5126357,9.8156896 7.3478084,9.7431937 7.1631338,9.7434394 6.7801643,9.7439493 6.6016345,9.8659482 6.3054722,10.007465 c -0.677093,0.323539 -1.0817715,0.982628 -1.0828696,1.801157 -0.00124,0.927123 0.4894432,1.527686 1.3350797,1.76928 0.1650491,0.04715 0.2315999,0.187349 0.5432716,0.187989 0.2051939,4.17e-4 0.4252257,-0.0073 0.4889595,-0.01711 l 0.2136393,-0.11055 -0.082911,0.32196 c 0.00817,0.126104 0.017579,0.478319 0.020916,0.7827 l 0.00607,0.553421 -1.7534755,-0.0042 c -0.9644115,-0.0023 -1.7982451,-0.0082 -1.8529634,-0.01308 z"
       id="path6550"
       transform="matrix(1.0178508,0,0,1.0131364,0.3615115,0.41267375)" />
    <path
       style="fill:#24eb1f;fill-opacity:1;fill-rule:evenodd;stroke:none;stroke-width:0.203155;stroke-dasharray:none;stroke-opacity:1"
       d="M 11.717826,10.054607 C 11.285245,9.9457462 10.93509,9.6923444 10.755279,9.3580252 10.564453,9.0032245 10.539321,8.6880338 10.663497,8.206937 10.720528,7.985982 10.76719,7.788588 10.76719,7.7682837 c 0,-0.020304 -0.53709,-0.024699 -1.193533,-0.00977 l -1.1935328,0.02715 -0.019655,-0.8294565 c -0.010851,-0.4579232 0.012733,-0.9822864 -0.00229,-1.0381539 -0.026072,-0.096993 -0.0093,-0.00118 0.5145243,-0.00118 0.4975545,0 0.5754216,-0.013181 0.8371418,-0.1417048 C 10.620602,5.3279258 10.89614,4.0495063 10.283277,3.1146385 9.9202263,2.5608361 9.2853392,2.3184785 8.5451872,2.4511517 L 8.3293355,2.4898433 V 1.4988648 0.50788631 h 1.7231385 c 0.956081,0 1.898614,0.0244064 2.117332,0.0548273 1.579834,0.21973478 2.865274,1.38474129 3.268775,2.96252339 0.09413,0.3680658 0.10274,0.5608321 0.10274,2.2999798 v 1.8982439 l -1.142744,-0.035109 c -0.628509,-0.01931 -1.142744,-0.025758 -1.142744,-0.014329 0,0.011429 0.04654,0.1806902 0.103433,0.3761376 0.337416,1.1592312 -0.111694,1.9626477 -1.135692,2.0316557 -0.172502,0.01162 -0.400089,-6.2e-4 -0.505748,-0.02721 z"
       id="path16671"
       transform="translate(0.46434899,0.51551123)" />
    <path
       id="rect1064"
       style="fill:none;fill-rule:evenodd;stroke:#000000;stroke-width:0.699673;stroke-dasharray:none"
       d="M 4.9297851,0.76267374 H 12.07729 c 2.336924,0 4.218274,1.88135006 4.218274,4.21827366 v 7.0688176 c 0,2.336923 -1.88135,4.218273 -4.218274,4.218273 H 4.9297851 c -2.3369236,0 -4.21827361,-1.88135 -4.21827361,-4.218273 V 4.9809474 c 0,-2.3369236 1.88135001,-4.21827366 4.21827361,-4.21827366 z m 3.572644,0.0873825 0.038069,2.55758986 c 2.7944119,-1.3026058 3.2077959,3.6086115 -0.045277,2.5984312 -0.052357,1.4783191 0.068271,3.2195177 0.081115,4.8046377 -3.3801338,-1.2087263 -3.599602,4.207746 -0.00584,3.044866 l 0.045578,2.312001 M 0.8369005,8.4870399 c 0.8449944,2.846e-4 2.299441,-0.00534 2.299441,-0.00534 -1.2733613,-3.2840204 4.2917867,-3.3607784 3.0058379,0.069298 0,0 4.5570926,-0.030757 4.7480376,-0.027332 -0.9552635,3.0376971 4.225175,3.3382021 3.193694,-0.054375 0,0 1.577835,0.020501 2.234846,0.02062 l 0.02261,0.00995" />
  </g>
</svg>
