<?xml version="1.0" encoding="UTF-8" standalone="no"?>
<!-- Created with Inkscape (http://www.inkscape.org/) -->

<svg
   version="1.1"
   id="svg2"
   width="32.000008"
   height="32.000027"
   viewBox="0 0 32.000008 32.000027"
   xmlns="http://www.w3.org/2000/svg"
   xmlns:svg="http://www.w3.org/2000/svg">
  <defs
     id="defs6" />
  <path
     style="fill:#ffffff;stroke-width:0.249754"
     d="m 1.182e-5,20.197183 c 0,-9.715414 0.0537708,-12.4945097 0.0537708,-12.4945097 0,0 3.85804438,-0.028879 6.31998668,-0.090296 L 6.3944843,0.02108185 C 15.672101,-0.00646301 20.764165,8.9112029e-4 31.993783,8.9112029e-4 31.957943,7.9022846 32.064123,15.80547 31.929253,23.706254 c -2.262399,0.0031 -3.744771,0.0026 -6.184261,0.0026 -7.56e-4,2.763804 0.01266,5.527777 -0.04304,8.291173 C 16.423966,31.923087 11.395651,31.944217 0,31.944217 Z M 22.745588,14.22564 c -6.748687,0 -13.4973744,0 -20.2460622,0 0,5.074326 0,10.148653 0,15.222979 6.7486878,0 13.4973752,0 20.2460622,0 0,-5.074326 0,-10.148653 0,-15.222979 z m 6.99864,-8.2353834 c -6.748688,0 -13.497375,0 -20.246063,0 0,0.5823 0,1.1646001 0,1.7468992 5.415613,0 10.831227,0 16.24684,0 0,4.4088412 0,8.8176822 0,13.2265232 1.333075,0 2.666148,0 3.999223,0 0,-4.991141 0,-9.982281 0,-14.9734224 z"
     id="path185" />
</svg>
