<?xml version="1.0" encoding="UTF-8" standalone="no"?>
<!-- Created with Inkscape (http://www.inkscape.org/) -->

<svg
   version="1.1"
   id="svg2"
   width="16"
   height="17.333559"
   viewBox="0 0 16 17.333559"
   xmlns="http://www.w3.org/2000/svg"
   xmlns:svg="http://www.w3.org/2000/svg">
  <defs
     id="defs6" />
  <g
     id="g8"
     transform="translate(-1.4309405,-0.1258305)">
    <path
       style="fill:#bcbec0;fill-opacity:1;stroke:none;stroke-width:0.135015"
       d="M 7.9523176,0.35399811 C 6.7835332,0.85221767 7.1707967,2.440935 6.1843095,3.0873194 5.4611016,3.5611951 4.6623664,2.993403 3.8964532,2.9745009 2.5960021,2.9423926 1.5010992,4.5794519 1.4333664,5.7737677 1.3594781,7.076622 2.9985629,7.5655249 2.9235351,8.7440979 2.8712302,9.5657178 1.9823534,10.091048 1.6200542,10.769323 c -0.5638632,1.055641 0.2334059,2.620519 1.0753325,3.318804 1.0929465,0.90649 2.1181425,-0.227366 3.2256706,0.177679 1.0040661,0.367241 0.8852259,1.532826 1.381082,2.296471 0.6358802,0.979264 2.4752163,1.087816 3.4780947,0.656983 1.265509,-0.543706 0.870063,-2.138368 1.900012,-2.818439 0.743014,-0.490509 1.623704,0.122054 2.422453,0.100857 1.207169,-0.032 2.173876,-1.556602 2.315372,-2.652235 C 17.595076,10.478244 15.885786,9.8390422 15.998253,8.6090829 16.068866,7.8354469 16.906364,7.364042 17.240661,6.7188727 17.791793,5.655103 17.012486,4.0999455 16.168777,3.4000682 15.058009,2.4787257 14.059046,3.6309708 12.94308,3.2223344 11.963951,2.863802 12.051143,1.6774792 11.561997,0.92593722 10.979624,0.03117114 8.8767789,-0.04006683 7.9523176,0.35399811 M 8.8920086,5.2776685 C 13.149977,4.566639 14.730597,11.449974 10.512188,12.21 9.2896278,12.430277 7.9476866,12.28488 7.025237,11.403772 4.9480986,9.4197261 6.0318911,5.7552841 8.8920086,5.2776685 Z"
       id="path399" />
  </g>
</svg>
