<?xml version="1.0" encoding="UTF-8" standalone="no"?>
<svg
   width="16.000004"
   height="16.000004"
   viewBox="-50 -30 1.5999996 1.6000004"
   id="svg2"
   version="1.1"
   xmlns="http://www.w3.org/2000/svg"
   xmlns:svg="http://www.w3.org/2000/svg"
   xmlns:rdf="http://www.w3.org/1999/02/22-rdf-syntax-ns#"
   xmlns:cc="http://creativecommons.org/ns#"
   xmlns:dc="http://purl.org/dc/elements/1.1/">
  <metadata
     id="metadata14">
    <rdf:RDF>
      <cc:Work
         rdf:about="">
        <dc:format>image/svg+xml</dc:format>
        <dc:type
           rdf:resource="http://purl.org/dc/dcmitype/StillImage" />
      </cc:Work>
    </rdf:RDF>
  </metadata>
  <defs
     id="defs12" />
  <path
     id="path3021"
     d="m -49.2,-28.533333 c -0.36819,0 -0.666667,-0.298477 -0.666667,-0.666667 0,-0.36819 0.298477,-0.666667 0.666667,-0.666667 0.368189,0 0.666666,0.298477 0.666666,0.666667 0,0.36819 -0.298477,0.666667 -0.666666,0.666667 z"
     style="fill:#ffffff;fill-opacity:1;stroke:none;stroke-width:0.0266667" />
  <path
     d="m -49.857987,-29.5391 h 1.315974 L -49.2,-28.46039 Z"
     id="path3229"
     style="fill:none;stroke:#ec1d24;stroke-width:0.092395;stroke-linecap:butt;stroke-linejoin:round;stroke-miterlimit:4;stroke-dasharray:none;stroke-opacity:1" />
  <path
     style="fill:#ec1d24;fill-opacity:1;stroke:none;stroke-width:0.0266667"
     d="m -49.2,-28.4 c 0.441827,0 0.8,-0.358172 0.8,-0.8 0,-0.441828 -0.358173,-0.8 -0.8,-0.8 -0.441828,0 -0.8,0.358172 -0.8,0.8 0,0.441828 0.358172,0.8 0.8,0.8 z m 0,-0.16 c -0.353462,0 -0.64,-0.286538 -0.64,-0.64 0,-0.353463 0.286538,-0.64 0.64,-0.64 0.353462,0 0.64,0.286537 0.64,0.64 0,0.353462 -0.286538,0.64 -0.64,0.64 z"
     id="path3069" />
  <path
     style="opacity:0.99;fill:#ffffff;fill-opacity:1;stroke:none;stroke-width:0.0266667"
     d="m -49.813585,-29.346806 0.147944,-0.07469 0.182164,0.36084 -0.147944,0.07469 z"
     id="rect3872" />
  <path
     id="path3877"
     d="m -48.586415,-29.346806 -0.147944,-0.07469 -0.182164,0.36084 0.147944,0.07469 z"
     style="opacity:0.99;fill:#ffffff;fill-opacity:1;stroke:none;stroke-width:0.0266667" />
  <path
     style="fill:#000000;fill-opacity:1;fill-rule:nonzero;stroke:none;stroke-width:0.0266667"
     id="path3890"
     d="m -49.694105,-29.278603 c 8.8e-5,0.01681 0.01116,0.02994 0.04174,0.03602 l 0.06725,0.01441 c 0.03635,0.007 0.0647,0.03496 0.06493,0.07259 -2.35e-4,0.05592 -0.04496,0.09782 -0.113625,0.09808 -0.05444,-2.53e-4 -0.08102,-0.01422 -0.122319,-0.05597 l 0.04,-0.03214 c 0.02965,0.03113 0.05267,0.04171 0.08232,0.04156 0.03855,1.52e-4 0.06291,-0.01212 0.06319,-0.0399 -2.8e-4,-0.01794 -0.01401,-0.0336 -0.03884,-0.03879 l -0.06261,-0.01274 c -0.04541,-0.0092 -0.07331,-0.04387 -0.07304,-0.0809 -2.66e-4,-0.05355 0.04269,-0.08742 0.110726,-0.08755 0,0 0.07854,1.33e-4 0.108406,0.04821 l -0.04232,0.03048 c -0.02297,-0.03495 -0.07304,-0.03491 -0.07304,-0.03491 -0.03495,-4.2e-5 -0.05267,0.01774 -0.05275,0.04156" />
  <path
     style="fill:#000000;fill-opacity:1;fill-rule:nonzero;stroke:none;stroke-width:0.0266667"
     id="path3892"
     d="m -49.338161,-29.312404 v 0.248246 h -0.05159 v -0.248246 h -0.08464 v -0.04488 h 0.220871 v 0.04488 h -0.08464" />
  <path
     style="fill:#000000;fill-opacity:1;fill-rule:nonzero;stroke:none;stroke-width:0.0266667"
     id="path3894"
     d="m -49.067455,-29.368384 c -0.09497,1.82e-4 -0.145424,0.0679 -0.145477,0.155699 5.3e-5,0.09718 0.05538,0.157297 0.145477,0.157385 0.09944,-8.8e-5 0.1464,-0.06741 0.14669,-0.157385 -2.9e-4,-0.08991 -0.0508,-0.155519 -0.14669,-0.155699 z m 0,0.04656 c 0.05825,2e-4 0.09237,0.03658 0.09219,0.109137 1.82e-4,0.06712 -0.02419,0.111171 -0.09219,0.111402 -0.0653,-2.29e-4 -0.09186,-0.04089 -0.09158,-0.111402 -2.77e-4,-0.06452 0.02363,-0.108938 0.09158,-0.109137 z" />
  <path
     style="fill:#000000;fill-opacity:1;fill-rule:nonzero;stroke:none;stroke-width:0.0266667"
     id="path3896"
     d="m -48.845382,-29.358955 v 0.294806 h 0.05329 l 6.06e-4,-0.107504 h 0.06089 c 0.06903,2.7e-5 0.100031,-0.05291 0.100291,-0.09423 -2.58e-4,-0.04419 -0.02687,-0.09326 -0.107289,-0.09307 z m 0.05329,0.04488 h 0.05742 c 0.03146,-2.08e-4 0.05449,0.01885 0.0545,0.04877 0,0.0323 -0.02041,0.04837 -0.05511,0.04819 h -0.05681 z" />
</svg>
